<svg width="75" height="75" viewBox="0 0 75 75" fill="none" xmlns="http://www.w3.org/2000/svg">
<g clip-path="url(#clip0)">
<path d="M74.9016 66.8262C74.9025 67.8868 74.6944 68.9372 74.2891 69.9173C73.8839 70.8974 73.2895 71.7881 72.5399 72.5384C71.7902 73.2887 70.9001 73.8839 69.9203 74.29C68.9405 74.6961 67.8903 74.9051 66.8297 74.9051H8.0707C7.01028 74.9046 5.96034 74.6953 4.98083 74.289C4.00132 73.8827 3.11143 73.2875 2.36198 72.5373C1.61254 71.7871 1.0182 70.8966 0.612933 69.9167C0.207661 68.9367 -0.000614368 67.8866 1.36124e-06 66.8262V8.07305C0.000311841 5.93244 0.850641 3.87957 2.36406 2.36571C3.87747 0.851857 5.9301 0.000932026 8.0707 0L66.8297 0C67.8898 -1.11721e-08 68.9395 0.208824 69.9189 0.614547C70.8983 1.02027 71.7882 1.61494 72.5378 2.36461C73.2873 3.11428 73.8819 4.00425 74.2875 4.98371C74.693 5.96317 74.9017 7.01293 74.9016 8.07305V66.8262V66.8262Z" fill="#1B2531"/>
<path d="M40.4957 57.8672V51.5719H23.5C21.3531 51.5719 19.7453 51.0844 18.6777 50.1141C17.6055 49.1426 17.0664 47.8219 17.0664 46.1543C17.0664 45.7242 17.1473 45.2895 17.3066 44.85C17.4625 44.4082 17.6992 43.9477 18.0168 43.4625C18.3344 42.9762 18.6613 42.5074 18.9965 42.0563C19.3375 41.6051 19.7465 41.0543 20.2504 40.398L38.1918 16.3945C39.3637 14.816 40.3293 13.6711 41.0863 12.9574C41.8445 12.2473 42.7469 11.8945 43.8145 11.8945C47.2422 11.8945 48.959 13.8563 48.959 17.7773V43.9828H50.4168C52.1512 43.9828 53.541 44.2195 54.5945 44.693C55.6445 45.1664 56.1684 46.207 56.1684 47.8078C56.1684 49.1168 55.7453 50.0707 54.8793 50.6672C54.025 51.2684 52.7359 51.5672 51.0191 51.5672H48.9578V57.8625C48.9578 59.6016 48.5711 60.8953 47.8023 61.7391C47.0395 62.584 46.0129 63.0094 44.7238 63.0094C43.4629 63.0094 42.441 62.5746 41.6594 61.7051C40.8824 60.8344 40.4957 59.5535 40.4957 57.8625V57.8672ZM25.934 43.9816H40.4945V24.3129L25.934 43.9816Z" fill="white"/>
</g>
<defs>
<clipPath id="clip0">
<rect width="75" height="75" fill="white"/>
</clipPath>
</defs>
</svg>
