<svg width="75" height="75" viewBox="0 0 75 75" fill="none" xmlns="http://www.w3.org/2000/svg">
<g clip-path="url(#clip0)">
<path d="M74.7562 66.6961C74.757 67.7549 74.5491 68.8035 74.1443 69.7818C73.7396 70.7602 73.1459 71.6492 72.3973 72.398C71.6488 73.1468 70.7599 73.7407 69.7817 74.1458C68.8034 74.5508 67.7549 74.7591 66.6961 74.7586H8.05547C6.99706 74.7584 5.94906 74.5497 4.97133 74.1444C3.99361 73.7391 3.10533 73.1451 2.35725 72.3964C1.60917 71.6476 1.01595 70.7588 0.611483 69.7808C0.207017 68.8027 -0.000767631 67.7545 2.13094e-06 66.6961V8.05664C2.10834e-06 5.92009 0.848664 3.87103 2.35932 2.36015C3.86998 0.84927 5.91892 0.000311112 8.05547 3.40916e-07H66.6973C67.7555 -0.000307485 68.8035 0.207848 69.7813 0.61258C70.7591 1.01731 71.6476 1.61069 72.3961 2.35884C73.1446 3.10698 73.7383 3.99523 74.1435 4.97287C74.5487 5.9505 74.7573 6.99838 74.7574 8.05664V66.6961H74.7562Z" fill="#1B2531"/>
<path d="M48.3277 20.7233H32.2777L30.3488 31.6698C33.5469 29.9589 36.4965 29.1022 39.2035 29.1022C41.3645 29.1022 43.3836 29.5089 45.268 30.3198C47.1465 31.1308 48.7953 32.2511 50.2191 33.6819C51.643 35.1128 52.7539 36.8073 53.566 38.7679C54.3734 40.7296 54.7789 42.8354 54.7789 45.0878C54.7789 48.3526 54.0488 51.3245 52.5828 54.0058C51.1203 56.6882 49.0074 58.8151 46.2512 60.3913C43.4914 61.9698 40.3086 62.7585 36.7051 62.7585C32.6727 62.7585 29.4008 62.0144 26.8895 60.5272C24.3781 59.0401 22.6027 57.3351 21.5527 55.4061C20.5016 53.4819 19.9824 51.7968 19.9824 50.3565C19.9824 49.4776 20.341 48.6433 21.0781 47.8558C21.8082 47.0659 22.7246 46.6722 23.8309 46.6722C25.7211 46.6722 27.1285 47.7679 28.0578 49.9487C28.9555 51.9562 30.1707 53.5124 31.7023 54.628C33.1867 55.7283 34.9887 56.3161 36.8363 56.3026C38.5719 56.3026 40.0918 55.8503 41.402 54.9503C42.7086 54.0503 43.7141 52.8104 44.4277 51.2354C45.1332 49.6546 45.4883 47.8663 45.4883 45.8612C45.4883 43.6979 45.1074 41.8522 44.3387 40.3206C43.5746 38.7878 42.548 37.6452 41.2637 36.8894C39.9781 36.1358 38.5508 35.7573 36.9746 35.7573C35.0363 35.7573 33.6547 35.9917 32.818 36.4663C31.9871 36.9421 30.7859 37.7683 29.218 38.9483C27.6523 40.1319 26.3633 40.7261 25.3555 40.7261C24.2469 40.7261 23.2684 40.3265 22.4117 39.5284C21.5539 38.7233 21.1262 37.8198 21.1262 36.805C21.1262 36.6948 21.2551 35.9272 21.5 34.5093L24.3406 18.3233C24.6535 16.3886 25.2359 14.9788 26.0949 14.1011C26.9469 13.2233 28.3449 12.7827 30.2832 12.7827H48.125C51.6383 12.7827 53.3973 14.1245 53.3973 16.8058C53.3973 17.9741 52.9648 18.921 52.1129 19.644C51.2516 20.3601 49.9883 20.721 48.3277 20.721" fill="white"/>
</g>
<defs>
<clipPath id="clip0">
<rect width="75" height="75" fill="white"/>
</clipPath>
</defs>
</svg>
