<svg width="75" height="75" viewBox="0 0 75 75" fill="none" xmlns="http://www.w3.org/2000/svg">
<g clip-path="url(#clip0)">
<path d="M74.9992 66.9137C74.9997 67.9758 74.7909 69.0276 74.3847 70.0089C73.9785 70.9903 73.383 71.882 72.6321 72.6332C71.8812 73.3843 70.9896 73.9801 70.0084 74.3865C69.0271 74.793 67.9754 75.0021 66.9133 75.002H8.08516C5.94104 75.0007 3.8852 74.1479 2.36974 72.6312C0.854276 71.1144 0.00328475 69.0578 0.00390659 66.9137V8.08555C0.00452748 5.94224 0.856067 3.88686 2.37139 2.3711C3.88672 0.855331 5.94185 0.00319553 8.08516 0.00195313H66.9133C69.0574 0.00195303 71.1137 0.85354 72.6301 2.36944C74.1464 3.88534 74.9986 5.94143 74.9992 8.08555V66.9137Z" fill="#1B2531"/>
<path d="M35.0668 57.5859V26.6566C29.3105 31.0758 25.4375 33.2836 23.4441 33.2836C22.4902 33.2836 21.6465 32.9051 20.9129 32.1445C20.1734 31.3875 19.8066 30.5074 19.8066 29.5113C19.8066 28.3559 20.1699 27.5086 20.8941 26.959C21.6195 26.4187 22.8992 25.7168 24.7355 24.8555C27.4777 23.5641 29.6715 22.2059 31.3109 20.7785C32.9486 19.3562 34.4148 17.7476 35.6797 15.9855C36.95 14.216 37.7727 13.1285 38.1582 12.7219C38.5437 12.3129 39.2738 12.1113 40.3367 12.1113C41.5367 12.1113 42.4988 12.573 43.2289 13.5023C43.9484 14.4305 44.3117 15.7125 44.3117 17.3438V56.2617C44.3117 60.8168 42.7602 63.0938 39.657 63.0938C38.2766 63.0938 37.1656 62.6273 36.3266 61.6992C35.484 60.7699 35.0668 59.3988 35.0668 57.5871" fill="white"/>
</g>
<defs>
<clipPath id="clip0">
<rect width="75" height="75" fill="white"/>
</clipPath>
</defs>
</svg>
