<svg width="75" height="75" viewBox="0 0 75 75" fill="none" xmlns="http://www.w3.org/2000/svg">
<g clip-path="url(#clip0)">
<path d="M74.4633 66.4348C74.4639 67.4892 74.2568 68.5334 73.8537 69.5077C73.4506 70.482 72.8595 71.3674 72.1141 72.1132C71.3688 72.859 70.4838 73.4506 69.5097 73.8542C68.5356 74.2579 67.4915 74.4656 66.4371 74.4656H8.02383C6.96962 74.4653 5.9258 74.2573 4.95198 73.8535C3.97817 73.4498 3.09344 72.8581 2.34833 72.1123C1.60321 71.3666 1.01232 70.4813 0.609387 69.5071C0.206457 68.533 -0.000614362 67.489 1.36914e-06 66.4348V8.02617C0.000311847 5.898 0.845702 3.85705 2.35033 2.35198C3.85495 0.846918 5.89566 0.000932023 8.02383 0L66.4383 0C68.5669 0.000310719 70.6082 0.846023 72.1133 2.35115C73.6184 3.85629 74.4641 5.89759 74.4645 8.02617V66.4348H74.4633Z" fill="#1B2531"/>
<path d="M31.541 54.1056H49.1086C50.8605 54.1056 52.1918 54.4653 53.1164 55.1837C54.0352 55.9009 54.4957 56.8782 54.4957 58.111C54.4957 59.2103 54.1312 60.1419 53.4023 60.906C52.6676 61.6677 51.5637 62.0497 50.0859 62.0497H25.3125C23.6273 62.0497 22.316 61.5845 21.3738 60.6528C20.434 59.7247 19.9629 58.629 19.9629 57.3704C19.9629 56.5653 20.2652 55.4919 20.8734 54.1571C21.4793 52.8235 22.1402 51.7747 22.8562 51.0095C25.8387 47.9122 28.5363 45.2603 30.9352 43.0501C33.3387 40.8399 35.052 39.388 36.0809 38.6907C37.9266 37.3911 39.457 36.0821 40.6734 34.7696C41.9004 33.4595 42.8332 32.1118 43.4719 30.7302C44.1117 29.3532 44.4293 27.9985 44.4293 26.6778C44.4293 25.2411 44.0883 23.9556 43.4051 22.8235C42.733 21.704 41.7667 20.7904 40.6113 20.1821C39.4254 19.5522 38.101 19.2284 36.7582 19.2399C33.8191 19.2399 31.5047 20.5302 29.823 23.1095C29.5992 23.4481 29.2219 24.3681 28.698 25.8681C28.1672 27.3728 27.573 28.5282 26.9145 29.3356C26.2488 30.1454 25.2809 30.5474 24.0035 30.5474C22.882 30.5474 21.9492 30.1771 21.2109 29.4353C20.468 28.6946 20.1 27.688 20.1 26.4071C20.1 24.8591 20.4445 23.2419 21.143 21.5626C21.8391 19.8774 22.875 18.3517 24.2543 16.9829C25.6406 15.613 27.3855 14.5079 29.5055 13.6665C31.6266 12.8251 34.1121 12.4067 36.9621 12.4067C40.3957 12.4067 43.3207 12.9423 45.7477 14.0216C47.3064 14.7302 48.712 15.7361 49.8855 16.9829C51.0802 18.2459 52.0239 19.7245 52.6664 21.3399C53.325 22.9911 53.6555 24.6997 53.6555 26.4751C53.6555 29.2571 52.9664 31.786 51.5871 34.0618C50.2055 36.3423 48.7969 38.1235 47.3637 39.4161C45.9234 40.7063 43.5176 42.7278 40.1414 45.4923C36.7629 48.2509 34.4531 50.3966 33.1922 51.9189C32.6531 52.5224 32.0988 53.2548 31.541 54.1056" fill="white"/>
</g>
<defs>
<clipPath id="clip0">
<rect width="75" height="75" fill="white"/>
</clipPath>
</defs>
</svg>
