<svg width="75" height="75" viewBox="0 0 75 75" fill="none" xmlns="http://www.w3.org/2000/svg">
<g clip-path="url(#clip0)">
<path d="M74.6098 66.566C74.6104 67.6226 74.4028 68.669 73.9988 69.6453C73.5948 70.6216 73.0024 71.5088 72.2553 72.256C71.5083 73.0032 70.6213 73.5959 69.6451 74.0002C68.6689 74.4045 67.6226 74.6124 66.566 74.6121H8.03907C6.98277 74.6121 5.93683 74.4039 4.96102 73.9995C3.98522 73.5951 3.09869 73.0023 2.3521 72.255C1.60551 71.5078 1.01351 70.6207 0.609921 69.6446C0.206334 68.6684 -0.000920799 67.6223 3.07517e-06 66.566V8.04141C-0.000150829 6.98555 0.207664 5.94 0.611581 4.96445C1.0155 3.98891 1.60761 3.10247 2.3541 2.35576C3.1006 1.60905 3.98686 1.01668 4.96229 0.612475C5.93772 0.208273 6.98321 0.000154223 8.03907 3.41586e-07H66.5648C67.6211 -0.000307502 68.667 0.207462 69.6429 0.611443C70.6188 1.01542 71.5055 1.6077 72.2525 2.35444C72.9995 3.10119 73.592 3.98777 73.9963 4.96355C74.4005 5.93933 74.6086 6.9852 74.6086 8.04141V66.566H74.6098Z" fill="#1B2531"/>
<path d="M35.5818 32.2653C37.649 32.2653 39.435 31.6548 40.9314 30.4431C42.4244 29.2278 43.1721 27.4888 43.1721 25.2153C43.1721 23.4868 42.5756 21.995 41.385 20.7505C40.1932 19.4989 38.5842 18.8755 36.558 18.8755C35.1904 18.8755 34.0607 19.0677 33.176 19.4485C32.2842 19.8317 31.5811 20.338 31.0654 20.9661C30.5451 21.5942 30.0576 22.4052 29.5994 23.3954C29.1673 24.3232 28.7462 25.2561 28.3361 26.1938C28.1076 26.6661 27.7033 27.0376 27.1162 27.306C26.5338 27.5755 25.8611 27.7114 25.0947 27.7114C24.1936 27.7114 23.3709 27.347 22.615 26.6157C21.8639 25.8845 21.4877 24.913 21.4877 23.6989C21.4877 22.5294 21.8451 21.2989 22.5482 20.0099C23.2561 18.7173 24.292 17.4845 25.6537 16.3149C27.0131 15.1466 28.7041 14.2067 30.7279 13.4966C32.7494 12.7899 35.0088 12.436 37.5072 12.436C39.6869 12.436 41.6756 12.736 43.4744 13.3325C45.2756 13.9255 46.8342 14.7856 48.1619 15.9083C49.4885 17.0356 50.4893 18.3399 51.1643 19.8224C51.8404 21.3071 52.1744 22.9021 52.1744 24.6095C52.1744 26.8571 51.6857 28.7872 50.7096 30.3915C49.7287 32.0028 48.3295 33.5696 46.5096 35.1024C48.2627 36.047 49.7404 37.1263 50.9439 38.338C52.1486 39.5532 53.0521 40.895 53.6592 42.3669C54.2662 43.8435 54.5662 45.4337 54.5662 47.1423C54.5662 49.1872 54.1572 51.1677 53.3393 53.0743C52.5166 54.9856 51.3072 56.6884 49.7111 58.1849C48.1197 59.6778 46.2225 60.8497 44.0299 61.6911C41.8373 62.5349 39.4162 62.9556 36.7631 62.9556C34.0654 62.9556 31.6432 62.4716 29.5139 61.5024C27.3752 60.5403 25.615 59.3298 24.2357 57.8813C22.8494 56.4341 21.8041 54.9294 21.0963 53.3802C20.3885 51.8274 20.0381 50.5478 20.0381 49.5353C20.0381 48.2321 20.46 47.1798 21.2979 46.3829C22.1416 45.5849 23.1916 45.1864 24.4561 45.1864C25.0842 45.1864 25.6912 45.3692 26.2736 45.7442C26.8607 46.1122 27.2439 46.5575 27.4221 47.0731C28.5939 50.202 29.8443 52.52 31.1803 54.0376C32.5209 55.5552 34.4006 56.3157 36.8299 56.3157C38.2256 56.3157 39.5686 55.9712 40.86 55.2856C42.1537 54.6013 43.2271 53.5841 44.0639 52.2341C44.9076 50.8853 45.3283 49.3243 45.3283 47.5478C45.3283 44.9169 44.6053 42.8485 43.1697 41.3603C41.7295 39.8638 39.7268 39.1173 37.165 39.1173C36.7115 39.1173 36.0213 39.1606 35.0744 39.2521C34.1275 39.3411 33.5205 39.3845 33.2545 39.3845C32.017 39.3845 31.0607 39.0763 30.3857 38.4587C29.7119 37.8399 29.3768 36.9821 29.3768 35.8782C29.3768 34.8013 29.7822 33.9294 30.5873 33.2661C31.3982 32.6017 32.6018 32.2712 34.199 32.2712H35.5818V32.2653Z" fill="white"/>
</g>
<defs>
<clipPath id="clip0">
<rect width="75" height="75" fill="white"/>
</clipPath>
</defs>
</svg>
